<svg width="127" height="133" viewBox="0 0 127 133" fill="none" xmlns="http://www.w3.org/2000/svg">
<g filter="url(#filter0_d)">
<circle cx="63.2332" cy="59.1575" r="59.1575" fill="white"/>
</g>
<path d="M92.3632 83.2398C92.9355 83.2398 93.3995 82.7763 93.3995 82.2047V34.1572C93.3995 33.5856 92.9355 33.1221 92.3632 33.1221H82.3463V25.3251C82.3463 24.7622 81.8733 24.29 81.31 24.29H34.8866C34.3144 24.29 33.8503 24.7535 33.8503 25.3251V87.1498C33.8503 87.7214 34.3144 88.1849 34.8866 88.1849H44.9036V93.7739C44.9036 94.3455 45.3676 94.809 45.9399 94.809H92.3634C92.9356 94.809 93.3997 94.3455 93.3997 93.7739V87.1268C93.3997 86.5552 92.9356 86.0918 92.3634 86.0918C91.7911 86.0918 91.3271 86.5552 91.3271 87.1268V92.739H46.976V35.1922H91.327V82.2048C91.327 82.7763 91.791 83.2398 92.3632 83.2398ZM45.6885 33.1531C45.234 33.2664 44.9036 33.6896 44.9036 34.1572V86.1148H35.9229V26.36H72.8929L45.6885 33.1531ZM80.2738 33.1221H54.3573L80.2738 26.6506V33.1221Z" fill="#7A7E86"/>
<path d="M84.6259 40.8502H53.677C53.1048 40.8502 52.6408 41.3137 52.6408 41.8853V56.2374C52.6408 56.809 53.1048 57.2724 53.677 57.2724H84.6259C85.1982 57.2724 85.6622 56.809 85.6622 56.2374V41.8853C85.6622 41.3136 85.1983 40.8502 84.6259 40.8502ZM83.5898 55.2023H54.7133V42.9202H83.5898V55.2023Z" fill="#7A7E86"/>
<path d="M72.4675 60.7225H53.677C53.1048 60.7225 52.6408 61.186 52.6408 61.7576V86.0458C52.6408 86.6174 53.1048 87.0808 53.677 87.0808H72.4675C73.0397 87.0808 73.5037 86.6174 73.5037 86.0458V61.7574C73.5037 61.1858 73.0397 60.7225 72.4675 60.7225ZM71.4313 85.0107H54.7133V62.7925H71.4313V85.0107Z" fill="#7A7E86"/>
<path d="M84.6259 64.0345H76.8887C76.3164 64.0345 75.8524 64.498 75.8524 65.0696C75.8524 65.6412 76.3164 66.1047 76.8887 66.1047H84.6259C85.1982 66.1047 85.6622 65.6412 85.6622 65.0696C85.6622 64.4979 85.1983 64.0345 84.6259 64.0345Z" fill="#7A7E86"/>
<path d="M84.6259 68.4505H76.8887C76.3164 68.4505 75.8524 68.914 75.8524 69.4856C75.8524 70.0571 76.3164 70.5206 76.8887 70.5206H84.6259C85.1982 70.5206 85.6622 70.0571 85.6622 69.4856C85.6622 68.914 85.1983 68.4505 84.6259 68.4505Z" fill="#7A7E86"/>
<path d="M84.6259 72.8666H76.8887C76.3164 72.8666 75.8524 73.3301 75.8524 73.9017C75.8524 74.4733 76.3164 74.9367 76.8887 74.9367H84.6259C85.1982 74.9367 85.6622 74.4733 85.6622 73.9017C85.6622 73.3299 85.1983 72.8666 84.6259 72.8666Z" fill="#7A7E86"/>
<path d="M84.6259 77.2826H76.8887C76.3164 77.2826 75.8524 77.746 75.8524 78.3176C75.8524 78.8892 76.3164 79.3527 76.8887 79.3527H84.6259C85.1982 79.3527 85.6622 78.8892 85.6622 78.3176C85.6622 77.746 85.1983 77.2826 84.6259 77.2826Z" fill="#7A7E86"/>
<path d="M84.6259 81.6987H76.8887C76.3164 81.6987 75.8524 82.1621 75.8524 82.7337C75.8524 83.3053 76.3164 83.7688 76.8887 83.7688H84.6259C85.1982 83.7688 85.6622 83.3053 85.6622 82.7337C85.6622 82.1621 85.1983 81.6987 84.6259 81.6987Z" fill="#7A7E86"/>
<defs>
<filter id="filter0_d" x="0.0756836" y="0" width="126.315" height="132.315" filterUnits="userSpaceOnUse" color-interpolation-filters="sRGB">
<feFlood flood-opacity="0" result="BackgroundImageFix"/>
<feColorMatrix in="SourceAlpha" type="matrix" values="0 0 0 0 0 0 0 0 0 0 0 0 0 0 0 0 0 0 127 0" result="hardAlpha"/>
<feOffset dy="10"/>
<feGaussianBlur stdDeviation="2"/>
<feColorMatrix type="matrix" values="0 0 0 0 0 0 0 0 0 0 0 0 0 0 0 0 0 0 0.05 0"/>
<feBlend mode="normal" in2="BackgroundImageFix" result="effect1_dropShadow"/>
<feBlend mode="normal" in="SourceGraphic" in2="effect1_dropShadow" result="shape"/>
</filter>
</defs>
</svg>
