<svg width="127" height="133" viewBox="0 0 127 133" fill="none" xmlns="http://www.w3.org/2000/svg">
<g filter="url(#filter0_d)">
<circle cx="63.2525" cy="59.1575" r="59.1575" fill="white"/>
</g>
<path d="M39.5503 94.809H86.1711C88.0071 94.809 89.5012 93.3259 89.5012 91.5034V45.2253C89.5012 45.1879 89.4834 45.157 89.4812 45.1218C89.4768 45.0711 89.4634 45.027 89.4523 44.9785C89.4175 44.8254 89.3493 44.6818 89.2525 44.5576C89.237 44.5378 89.2392 44.5135 89.2237 44.4937L71.4634 24.6603C71.4567 24.6537 71.4478 24.6537 71.4412 24.647C71.3057 24.5065 71.1347 24.4045 70.9461 24.3517C70.9039 24.3385 70.8662 24.3341 70.8218 24.3275C70.7574 24.3165 70.6974 24.29 70.6308 24.29H39.5503C37.7143 24.29 36.2202 25.7731 36.2202 27.5956V91.5034C36.2202 93.3259 37.7143 94.809 39.5503 94.809ZM71.7409 28.2898L85.9203 44.1235H72.8509C72.3625 44.1235 71.7409 43.1979 71.7409 42.4707V28.2898ZM38.4403 27.5956C38.4403 27.3034 38.5572 27.0231 38.7654 26.8165C38.9735 26.6098 39.2559 26.4938 39.5503 26.4938H69.5208V42.4707C69.5208 44.2535 70.9749 46.3272 72.8509 46.3272H87.2811V91.5034C87.2811 91.7956 87.1642 92.0759 86.956 92.2825C86.7479 92.4892 86.4655 92.6052 86.1711 92.6052H39.5503C38.9287 92.6052 38.4403 92.1204 38.4403 91.5034V27.5956Z" fill="#7A7E86"/>
<path d="M48.4304 55.1421H77.291C77.5854 55.1421 77.8677 55.026 78.0759 54.8193C78.284 54.6127 78.401 54.3324 78.401 54.0402C78.401 53.748 78.284 53.4677 78.0759 53.2611C77.8677 53.0544 77.5854 52.9384 77.291 52.9384H48.4304C48.136 52.9384 47.8537 53.0544 47.6455 53.2611C47.4374 53.4677 47.3204 53.748 47.3204 54.0402C47.3204 54.3324 47.4374 54.6127 47.6455 54.8193C47.8537 55.026 48.136 55.1421 48.4304 55.1421Z" fill="#7A7E86"/>
<path d="M48.4304 63.9569H77.291C77.5854 63.9569 77.8677 63.8408 78.0759 63.6342C78.284 63.4276 78.401 63.1473 78.401 62.8551C78.401 62.5628 78.284 62.2826 78.0759 62.0759C77.8677 61.8693 77.5854 61.7532 77.291 61.7532H48.4304C48.136 61.7532 47.8537 61.8693 47.6455 62.0759C47.4374 62.2826 47.3204 62.5628 47.3204 62.8551C47.3204 63.1473 47.4374 63.4276 47.6455 63.6342C47.8537 63.8408 48.136 63.9569 48.4304 63.9569Z" fill="#7A7E86"/>
<path d="M48.4304 46.3272H61.7507C62.0451 46.3272 62.3274 46.2111 62.5356 46.0045C62.7438 45.7978 62.8607 45.5176 62.8607 45.2253C62.8607 44.9331 62.7438 44.6529 62.5356 44.4462C62.3274 44.2396 62.0451 44.1235 61.7507 44.1235H48.4304C48.136 44.1235 47.8537 44.2396 47.6455 44.4462C47.4374 44.6529 47.3204 44.9331 47.3204 45.2253C47.3204 45.5176 47.4374 45.7978 47.6455 46.0045C47.8537 46.2111 48.136 46.3272 48.4304 46.3272Z" fill="#7A7E86"/>
<path d="M48.4304 72.7718H77.291C77.5854 72.7718 77.8677 72.6557 78.0759 72.4491C78.284 72.2424 78.401 71.9622 78.401 71.6699C78.401 71.3777 78.284 71.0975 78.0759 70.8908C77.8677 70.6842 77.5854 70.5681 77.291 70.5681H48.4304C48.136 70.5681 47.8537 70.6842 47.6455 70.8908C47.4374 71.0975 47.3204 71.3777 47.3204 71.6699C47.3204 71.9622 47.4374 72.2424 47.6455 72.4491C47.8537 72.6557 48.136 72.7718 48.4304 72.7718Z" fill="#7A7E86"/>
<path d="M48.4304 81.5867H77.291C77.5854 81.5867 77.8677 81.4706 78.0759 81.2639C78.284 81.0573 78.401 80.777 78.401 80.4848C78.401 80.1926 78.284 79.9123 78.0759 79.7057C77.8677 79.499 77.5854 79.3829 77.291 79.3829H48.4304C48.136 79.3829 47.8537 79.499 47.6455 79.7057C47.4374 79.9123 47.3204 80.1926 47.3204 80.4848C47.3204 80.777 47.4374 81.0573 47.6455 81.2639C47.8537 81.4706 48.136 81.5867 48.4304 81.5867Z" fill="#7A7E86"/>
<defs>
<filter id="filter0_d" x="0.0949707" y="0" width="126.315" height="132.315" filterUnits="userSpaceOnUse" color-interpolation-filters="sRGB">
<feFlood flood-opacity="0" result="BackgroundImageFix"/>
<feColorMatrix in="SourceAlpha" type="matrix" values="0 0 0 0 0 0 0 0 0 0 0 0 0 0 0 0 0 0 127 0" result="hardAlpha"/>
<feOffset dy="10"/>
<feGaussianBlur stdDeviation="2"/>
<feColorMatrix type="matrix" values="0 0 0 0 0 0 0 0 0 0 0 0 0 0 0 0 0 0 0.05 0"/>
<feBlend mode="normal" in2="BackgroundImageFix" result="effect1_dropShadow"/>
<feBlend mode="normal" in="SourceGraphic" in2="effect1_dropShadow" result="shape"/>
</filter>
</defs>
</svg>
