<svg width="127" height="133" viewBox="0 0 127 133" fill="none" xmlns="http://www.w3.org/2000/svg">
<g filter="url(#filter0_d)">
<circle cx="63.1575" cy="59.1575" r="59.1575" fill="white"/>
</g>
<path d="M82.2135 39.9176C82.2135 36.643 79.5502 33.9789 76.2766 33.9789C73.0026 33.9789 70.3393 36.643 70.3393 39.9176C70.3393 43.1927 73.0026 45.8569 76.2766 45.8569C79.5502 45.8569 82.2135 43.1927 82.2135 39.9176ZM72.1748 39.9176C72.1748 37.6553 74.0151 35.8149 76.2766 35.8149C78.5382 35.8149 80.378 37.6553 80.378 39.9176C80.378 42.1805 78.5382 44.0208 76.2766 44.0208C74.0151 44.0208 72.1748 42.18 72.1748 39.9176Z" fill="#7A7E86"/>
<path d="M66.1638 36.7693C66.6708 36.7693 67.0816 36.3584 67.0816 35.8513C67.0816 35.3442 66.6708 34.9333 66.1638 34.9333H63.7511C63.2442 34.9333 62.8334 35.3442 62.8334 35.8513C62.8334 36.3584 63.2442 36.7693 63.7511 36.7693H66.1638Z" fill="#7A7E86"/>
<path d="M45.6106 36.7693H57.8057C58.3126 36.7693 58.7234 36.3584 58.7234 35.8513C58.7234 35.3442 58.3126 34.9333 57.8057 34.9333H45.6106C45.1037 34.9333 44.6929 35.3442 44.6929 35.8513C44.6929 36.3584 45.1037 36.7693 45.6106 36.7693Z" fill="#7A7E86"/>
<path d="M45.6106 44.902H48.7555C49.2625 44.902 49.6733 44.4911 49.6733 43.984C49.6733 43.4769 49.2625 43.066 48.7555 43.066H45.6106C45.1037 43.066 44.6929 43.4769 44.6929 43.984C44.6929 44.4911 45.1037 44.902 45.6106 44.902Z" fill="#7A7E86"/>
<path d="M54.7015 43.066C54.1945 43.066 53.7837 43.4769 53.7837 43.984C53.7837 44.4911 54.1945 44.902 54.7015 44.902H56.6895C57.1964 44.902 57.6072 44.4911 57.6072 43.984C57.6072 43.4769 57.1964 43.066 56.6895 43.066H54.7015Z" fill="#7A7E86"/>
<path d="M45.6106 40.8357H66.1638C66.6708 40.8357 67.0816 40.4247 67.0816 39.9176C67.0816 39.4106 66.6708 38.9996 66.1638 38.9996H45.6106C45.1037 38.9996 44.6929 39.4106 44.6929 39.9176C44.6929 40.4247 45.1037 40.8357 45.6106 40.8357Z" fill="#7A7E86"/>
<path d="M48.0167 56.0486H78.8902C80.7228 56.0486 82.2135 54.557 82.2135 52.7238C82.2135 50.8906 80.7228 49.3994 78.8902 49.3994H48.0167C46.1841 49.3994 44.6929 50.8906 44.6929 52.7238C44.6929 54.557 46.1841 56.0486 48.0167 56.0486ZM48.0167 51.2355H78.8902C79.7104 51.2355 80.378 51.9029 80.378 52.7238C80.378 53.5447 79.7104 54.2125 78.8902 54.2125H48.0167C47.196 54.2125 46.5284 53.5447 46.5284 52.7238C46.5284 51.9029 47.196 51.2355 48.0167 51.2355Z" fill="#7A7E86"/>
<path d="M48.0167 64.4698H78.8902C80.7228 64.4698 82.2135 62.9782 82.2135 61.1449C82.2135 59.3117 80.7228 57.8206 78.8902 57.8206H48.0167C46.1841 57.8206 44.6929 59.3117 44.6929 61.1449C44.6929 62.9782 46.1841 64.4698 48.0167 64.4698ZM48.0167 59.6567H78.8902C79.7104 59.6567 80.378 60.3245 80.378 61.1449C80.378 61.9659 79.7104 62.6337 78.8902 62.6337H48.0167C47.196 62.6337 46.5284 61.9659 46.5284 61.1449C46.5284 60.3245 47.196 59.6567 48.0167 59.6567Z" fill="#7A7E86"/>
<path d="M48.0167 72.891H78.8902C80.7228 72.891 82.2135 71.3998 82.2135 69.5666C82.2135 67.7334 80.7228 66.2418 78.8902 66.2418H48.0167C46.1841 66.2418 44.6929 67.7334 44.6929 69.5666C44.6929 71.3998 46.1841 72.891 48.0167 72.891ZM48.0167 68.0778H78.8902C79.7104 68.0778 80.378 68.7457 80.378 69.5666C80.378 70.387 79.7104 71.0549 78.8902 71.0549H48.0167C47.196 71.0549 46.5284 70.387 46.5284 69.5666C46.5284 68.7457 47.196 68.0778 48.0167 68.0778Z" fill="#7A7E86"/>
<path d="M48.0167 81.3121H69.6736C71.5062 81.3121 72.9974 79.821 72.9974 77.9878C72.9974 76.1546 71.5062 74.6629 69.6736 74.6629H48.0167C46.1841 74.6629 44.6929 76.1546 44.6929 77.9878C44.6929 79.821 46.1841 81.3121 48.0167 81.3121ZM48.0167 76.499H69.6736C70.4943 76.499 71.1614 77.1668 71.1614 77.9878C71.1614 78.8087 70.4943 79.476 69.6736 79.476H48.0167C47.196 79.476 46.5284 78.8087 46.5284 77.9878C46.5284 77.1668 47.196 76.499 48.0167 76.499Z" fill="#7A7E86"/>
<path d="M98.287 77.2812H94.8189V74.2171C94.8189 73.4339 94.3464 72.7599 93.6725 72.4623L95.0173 66.2958C95.4033 64.5238 94.9351 62.6395 93.7634 61.255C92.6467 59.9356 91.0154 59.1787 89.2871 59.1787C88.9982 59.1787 88.7122 59.2017 88.4306 59.2429V31.2573C88.4306 29.5757 87.0628 28.2075 85.3818 28.2075H41.5246C39.8436 28.2075 38.4758 29.5757 38.4758 31.2573V41.1065C38.4758 41.6136 38.8866 42.0245 39.3936 42.0245C39.9005 42.0245 40.3113 41.6136 40.3113 41.1065V31.2573C40.3113 30.588 40.8555 30.0436 41.5246 30.0436H85.3818C86.0509 30.0436 86.5951 30.588 86.5951 31.2573V59.8337C85.9212 60.1819 85.3134 60.6608 84.8103 61.255C84.1169 62.0749 83.6616 63.069 83.4942 64.1296C83.4148 64.6305 83.7567 65.1008 84.257 65.1797C84.7587 65.2591 85.2278 64.9171 85.3072 64.4162C85.422 63.6876 85.7347 63.0045 86.2115 62.4414C86.9786 61.5348 88.0996 61.0148 89.2871 61.0148C90.4745 61.0148 91.5955 61.5348 92.3626 62.4414C93.1675 63.3924 93.4893 64.687 93.2239 65.9045L91.8294 72.2992H86.7448L85.8883 68.3706C85.7802 67.8755 85.2919 67.5616 84.796 67.6693C84.3005 67.7774 83.9868 68.2668 84.0949 68.7619L84.9016 72.4623C84.2273 72.7599 83.7548 73.4339 83.7548 74.2171V77.2812H80.2871C78.7032 77.2812 77.4144 78.57 77.4144 80.1544V82.4938C77.4144 84.0782 78.7032 85.367 80.2871 85.367H80.3359L80.8931 87.8403C80.9925 88.2814 81.1623 88.6894 81.3895 89.0545H41.5246C40.8555 89.0545 40.3113 88.51 40.3113 87.8408V45.3192C40.3113 44.8121 39.9005 44.4012 39.3936 44.4012C38.8866 44.4012 38.4758 44.8121 38.4758 45.3192V87.8408C38.4758 89.5223 39.8436 90.891 41.5246 90.891L93.8825 90.879C95.716 90.879 97.2784 89.6295 97.6811 87.8403L98.2382 85.367H98.287C99.8705 85.367 101.159 84.0782 101.159 82.4938V80.1544C101.159 78.57 99.8705 77.2812 98.287 77.2812ZM85.5903 74.2171C85.5903 74.1721 85.6271 74.1353 85.6721 74.1353H92.9021C92.947 74.1353 92.9834 74.1721 92.9834 74.2171V77.2812H85.5903V74.2171ZM95.8906 87.4365C95.6773 88.3828 94.8518 89.043 93.8825 89.043H84.6917C83.7223 89.043 82.8969 88.3828 82.6836 87.4365L82.2178 85.367H96.3564L95.8906 87.4365ZM99.3238 82.4938C99.3238 83.0654 98.8585 83.5309 98.287 83.5309H80.2871C79.7156 83.5309 79.2503 83.0654 79.2503 82.4938V80.1544C79.2503 79.5823 79.7156 79.1173 80.2871 79.1173H98.287C98.859 79.1173 99.3238 79.5823 99.3238 80.1544V82.4938Z" fill="#7A7E86"/>
<defs>
<filter id="filter0_d" x="0" y="0" width="126.315" height="132.315" filterUnits="userSpaceOnUse" color-interpolation-filters="sRGB">
<feFlood flood-opacity="0" result="BackgroundImageFix"/>
<feColorMatrix in="SourceAlpha" type="matrix" values="0 0 0 0 0 0 0 0 0 0 0 0 0 0 0 0 0 0 127 0" result="hardAlpha"/>
<feOffset dy="10"/>
<feGaussianBlur stdDeviation="2"/>
<feColorMatrix type="matrix" values="0 0 0 0 0 0 0 0 0 0 0 0 0 0 0 0 0 0 0.05 0"/>
<feBlend mode="normal" in2="BackgroundImageFix" result="effect1_dropShadow"/>
<feBlend mode="normal" in="SourceGraphic" in2="effect1_dropShadow" result="shape"/>
</filter>
</defs>
</svg>
