<svg width="101" height="76" viewBox="0 0 101 76" fill="none" xmlns="http://www.w3.org/2000/svg">
<rect x="16.7676" y="13.8418" width="67.0703" height="36.6914" fill="#FFC700"/>
<rect x="32.3516" y="58.6211" width="35.9023" height="6.70703" rx="3.35352" fill="#FFC700"/>
<path d="M99.6191 57.2402H93.6049V9.89648C93.6032 8.48441 93.0416 7.13065 92.0431 6.13216C91.0446 5.13367 89.6908 4.57198 88.2787 4.57031H12.726C11.3139 4.57198 9.96016 5.13367 8.96167 6.13216C7.96318 7.13065 7.4015 8.48441 7.39983 9.89648V57.2402H1.38086C1.01463 57.2402 0.663406 57.3857 0.404444 57.6447C0.145483 57.9036 0 58.2549 0 58.6211L0 64.7363C0.00229732 66.776 0.813583 68.7315 2.25587 70.1738C3.69816 71.6161 5.65366 72.4274 7.69336 72.4297H93.3066C95.3463 72.4274 97.3018 71.6161 98.7441 70.1738C100.186 68.7315 100.998 66.776 101 64.7363V58.6211C101 58.2549 100.855 57.9036 100.596 57.6447C100.337 57.3857 99.9854 57.2402 99.6191 57.2402V57.2402ZM10.1615 9.89648C10.1624 9.21661 10.4328 8.56481 10.9136 8.08406C11.3943 7.60332 12.0461 7.33287 12.726 7.33203H88.2787C88.9586 7.33287 89.6104 7.60332 90.0912 8.08406C90.5719 8.56481 90.8424 9.21661 90.8432 9.89648V57.2402H10.1615V9.89648ZM34.3242 60.002H66.6758V60.8896C66.6749 61.5695 66.4045 62.2213 65.9237 62.7021C65.443 63.1828 64.7912 63.4533 64.1113 63.4541H36.8887C36.2088 63.4533 35.557 63.1828 35.0763 62.7021C34.5955 62.2213 34.3251 61.5695 34.3242 60.8896V60.002ZM98.2383 64.7363C98.2368 66.0438 97.7168 67.2974 96.7922 68.2219C95.8677 69.1465 94.6141 69.6665 93.3066 69.668H7.69336C6.38586 69.6665 5.13232 69.1465 4.20778 68.2219C3.28323 67.2974 2.76318 66.0438 2.76172 64.7363V60.002H31.5625V60.8896C31.5642 62.3017 32.1259 63.6555 33.1243 64.654C34.1228 65.6525 35.4766 66.2141 36.8887 66.2158H64.1113C65.5234 66.2141 66.8772 65.6525 67.8757 64.654C68.8741 63.6555 69.4358 62.3017 69.4375 60.8896V60.002H98.2383V64.7363Z" fill="black"/>
<path d="M85.7143 50.7305V13.8418C85.7143 13.4756 85.5688 13.1243 85.3099 12.8654C85.0509 12.6064 84.6997 12.4609 84.3334 12.4609H16.6713C16.3051 12.4609 15.9539 12.6064 15.6949 12.8654C15.4359 13.1243 15.2905 13.4756 15.2905 13.8418V50.7305C15.2905 51.0967 15.4359 51.4479 15.6949 51.7069C15.9539 51.9658 16.3051 52.1113 16.6713 52.1113H84.3334C84.6997 52.1113 85.0509 51.9658 85.3099 51.7069C85.5688 51.4479 85.7143 51.0967 85.7143 50.7305V50.7305ZM82.9526 49.3496H18.0522V15.2227H82.9526V49.3496Z" fill="black"/>
<path d="M42.4713 40.3149C42.5995 40.4432 42.7517 40.545 42.9192 40.6145C43.0868 40.684 43.2664 40.7197 43.4477 40.7197C43.6291 40.7197 43.8087 40.684 43.9763 40.6145C44.1438 40.545 44.296 40.4432 44.4242 40.3149L58.5287 26.2104C58.7877 25.9514 58.9332 25.6002 58.9332 25.234C58.9332 24.8677 58.7877 24.5165 58.5287 24.2575C58.2697 23.9985 57.9185 23.853 57.5522 23.853C57.186 23.853 56.8348 23.9985 56.5758 24.2575L42.4713 38.362C42.2125 38.621 42.0671 38.9723 42.0671 39.3384C42.0671 39.7046 42.2125 40.0558 42.4713 40.3149V40.3149Z" fill="black"/>
<path d="M53.4929 37.1926C53.7521 37.4512 54.1033 37.5964 54.4694 37.5964C54.8355 37.5964 55.1867 37.4512 55.4458 37.1926L63.3057 29.3327C63.4339 29.2045 63.5356 29.0523 63.605 28.8847C63.6744 28.7172 63.7102 28.5376 63.7102 28.3563C63.7102 28.1749 63.6744 27.9954 63.605 27.8278C63.5356 27.6603 63.4339 27.508 63.3057 27.3798C63.1775 27.2516 63.0252 27.1499 62.8577 27.0805C62.6901 27.0111 62.5106 26.9753 62.3292 26.9753C62.1479 26.9753 61.9683 27.0111 61.8008 27.0805C61.6332 27.1499 61.481 27.2516 61.3528 27.3798L53.4929 35.2397C53.2341 35.4987 53.0887 35.8499 53.0887 36.2161C53.0887 36.5823 53.2341 36.9335 53.4929 37.1926V37.1926Z" fill="black"/>
<path d="M38.6759 37.5966C38.8572 37.597 39.0368 37.5615 39.2043 37.4921C39.3718 37.4228 39.5239 37.321 39.6519 37.1926L47.511 29.3328C47.6429 29.2054 47.7481 29.0531 47.8206 28.8846C47.893 28.7162 47.9311 28.535 47.9327 28.3516C47.9343 28.1683 47.8994 27.9864 47.83 27.8167C47.7607 27.647 47.6582 27.4928 47.5285 27.3631C47.3989 27.2335 47.2447 27.1309 47.0751 27.0614C46.9054 26.992 46.7235 26.957 46.5402 26.9585C46.3568 26.9601 46.1756 26.9982 46.0072 27.0705C45.8387 27.1428 45.6863 27.248 45.5589 27.3799L37.699 35.2397C37.506 35.4329 37.3746 35.6789 37.3214 35.9468C37.2682 36.2146 37.2956 36.4922 37.4001 36.7445C37.5047 36.9967 37.6817 37.2123 37.9088 37.364C38.1359 37.5157 38.4028 37.5967 38.6759 37.5966V37.5966Z" fill="black"/>
</svg>
